<svg xmlns="http://www.w3.org/2000/svg" viewBox="0 0 32 32"><path fill="#1877F3" d="M16 32c8.837 0 16-7.163 16-16S24.837 0 16 0S0 7.163 0 16c0 7.732 5.471 14.133 12.625 15.682V20.625h-3.797v-4.625h3.797v-3.525c0-3.757 2.243-5.825 5.669-5.825c1.644 0 3.364.293 3.364.293v3.701h-1.896c-1.868 0-2.451 1.161-2.451 2.353v2.003h4.172l-.667 4.625h-3.505V31.682C26.529 30.133 32 23.732 32 16c0-8.837-7.163-16-16-16z"/><path fill="#FFF" d="M21.333 20.625l.667-4.625h-4.172v-2.003c0-1.192.583-2.353 2.451-2.353h1.896v-3.701s-1.72-.293-3.364-.293c-3.426 0-5.669 2.068-5.669 5.825v3.525h-3.797v4.625h3.797V31.682A16.013 16.013 0 0 0 16 32c2.237 0 4.37-.438 6.329-1.318V20.625h-3.505z"/></svg>
