<svg xmlns="http://www.w3.org/2000/svg" viewBox="0 0 32 32"><linearGradient id="a" x1="16" x2="16" y1="2" y2="30" gradientUnits="userSpaceOnUse"><stop offset="0" stop-color="#fd5"/><stop offset=".5" stop-color="#ff543e"/><stop offset="1" stop-color="#c837ab"/></linearGradient><rect width="32" height="32" rx="7" fill="url(#a)"/><path fill="#fff" d="M16 10.7a5.3 5.3 0 1 0 0 10.6a5.3 5.3 0 0 0 0-10.6zm0 8.7a3.4 3.4 0 1 1 0-6.8a3.4 3.4 0 0 1 0 6.8zm6.4-8.9a1.2 1.2 0 1 1-2.4 0a1.2 1.2 0 0 1 2.4 0z"/><path fill="#fff" d="M28.1 8.6a6.1 6.1 0 0 0-1.6-2.3a6.1 6.1 0 0 0-2.3-1.6c-.9-.4-1.9-.7-3-.8c-1.2-.1-1.6-.1-4.7-.1s-3.5 0-4.7.1c-1.1.1-2.1.4-3 .8a6.1 6.1 0 0 0-2.3 1.6a6.1 6.1 0 0 0-1.6 2.3c-.4.9-.7 1.9-.8 3c-.1 1.2-.1 1.6-.1 4.7s0 3.5.1 4.7c.1 1.1.4 2.1.8 3a6.1 6.1 0 0 0 1.6 2.3a6.1 6.1 0 0 0 2.3 1.6c.9.4 1.9.7 3 .8c1.2.1 1.6.1 4.7.1s3.5 0 4.7-.1c1.1-.1 2.1-.4 3-.8a6.1 6.1 0 0 0 2.3-1.6a6.1 6.1 0 0 0 1.6-2.3c.4-.9.7-1.9.8-3c.1-1.2.1-1.6.1-4.7s0-3.5-.1-4.7c-.1-1.1-.4-2.1-.8-3zm-2.2 12.1c-.1.9-.4 1.4-.7 1.9c-.4.7-.9 1.2-1.6 1.6c-.5.3-1 .6-1.9.7c-1.1.1-1.4.1-4.6.1s-3.5 0-4.6-.1c-.9-.1-1.4-.4-1.9-.7c-.7-.4-1.2-.9-1.6-1.6c-.3-.5-.6-1-.7-1.9c-.1-1.1-.1-1.4-.1-4.6s0-3.5.1-4.6c.1-.9.4-1.4.7-1.9c.4-.7.9-1.2 1.6-1.6c.5-.3 1-.6 1.9-.7c1.1-.1 1.4-.1 4.6-.1s3.5 0 4.6.1c.9.1 1.4.4 1.9.7c.7.4 1.2.9 1.6 1.6c.3.5.6 1 .7 1.9c.1 1.1.1 1.4.1 4.6s0 3.5-.1 4.6z"/></svg>
